HIERARCHY
ROOT pelvis
{
  OFFSET 0 100 0
  CHANNELS 6 Xposition Yposition Zposition Zrotation Xrotation Yrotation
  JOINT pelvis_right_femur
  {
    OFFSET -10.78128 -3.44521 -0.5502486
    CHANNELS 3 Zrotation Xrotation Yrotation
    JOINT right_femur_tibia
    {
      OFFSET -0.8047443 -44.0398 -0.1307829
      CHANNELS 3 Zrotation Xrotation Yrotation
      JOINT right_tibia_foot
      {
        OFFSET 3.006224 -47.83518 -5
        CHANNELS 3 Zrotation Xrotation Yrotation
        End Site
        {
          OFFSET 0 -5 15
        }
      }
    }
  }
  JOINT pelvis_left_femur
  {
    OFFSET 10.78128 -3.44521 -0.5502486
    CHANNELS 3 Zrotation Xrotation Yrotation
    JOINT left_femur_tibia
    {
      OFFSET 0.8047443 -44.0398 -0.1307829
      CHANNELS 3 Zrotation Xrotation Yrotation
      JOINT left_tibia_foot
      {
        OFFSET -4.370144 -48.10324 -4.275266
        CHANNELS 3 Zrotation Xrotation Yrotation
        End Site
        {
          OFFSET 0 -5 15
        }
      }
    }
  }
  JOINT pelvis_spine1
  {
    OFFSET 0 6.468898 -3.129235
    CHANNELS 3 Zrotation Xrotation Yrotation
    JOINT spine1
    {
      OFFSET 0 23.15396 4.99043
      CHANNELS 3 Zrotation Xrotation Yrotation
      JOINT spine2
      {
        OFFSET 0 20.79997 -5.064912
        CHANNELS 3 Zrotation Xrotation Yrotation
        JOINT neck
        {
          OFFSET 0 14.38658 9.616178
          CHANNELS 3 Zrotation Xrotation Yrotation
          End Site
          {
            OFFSET 0 20 0
          }
        }
      }
      JOINT right_manubrium
      {
        OFFSET -5.722621 16.35077 3.967754
        CHANNELS 3 Zrotation Xrotation Yrotation
        JOINT right_clavicle
        {
          OFFSET -13.16364 1.694482 -4.693211
          CHANNELS 3 Zrotation Xrotation Yrotation
          JOINT right_humerus
          {
            OFFSET -28.5034 -0.3100689 -2.792744
            CHANNELS 3 Zrotation Xrotation Yrotation
            JOINT right_radius
            {
              OFFSET -25.15693 0.02248979 -1.271978
              CHANNELS 3 Zrotation Xrotation Yrotation
              End Site
              {
                OFFSET -15 0 0
              }
            }
          }
        }
      }
      JOINT left_manubrium
      {
        OFFSET 5.722621 16.35077 3.967754
        CHANNELS 3 Zrotation Xrotation Yrotation
        JOINT left_clavicle
        {
          OFFSET 13.16364 1.694482 -4.693211
          CHANNELS 3 Zrotation Xrotation Yrotation
          JOINT left_humerus
          {
            OFFSET 29.39168 -1.063119 -2.237045
            CHANNELS 3 Zrotation Xrotation Yrotation
            JOINT left_radius
            {
              OFFSET 24.59957 -0.9528479 0.9047498
              CHANNELS 3 Zrotation Xrotation Yrotation
              End Site
              {
                OFFSET 15 -0 -0
              }
            }
          }
        }
      }
    }
  }
}
MOTION
Frames: 16
Frame Time: 0.0416666666667
32.18714 105.2767 239.5376 1.648061 -6.991675 3.875443 1.211115 10.62511 7.31626 2.983162e-06 36.30883 -2.900994e-06 4.860813 -9.9417 -3.876525 -2.499807 -16.13081 -8.087673 6.91167e-06 20.33892 1.093294e-05 -6.128579 -10.08903 19.35365 -1.367251 -0.001681066 8.271621 -1.258031 10.02593 -2.95035 2.808897 21.88308 5.047376 1.422251 -17.19415 8.478949 2.375744 -21.1824 10.50325 81.46571 23.90502 -7.030491 -4.55672e-07 1.119395e-06 24.63222 -24.1609 13.45871 12.84956 4.104109 -14.53109 -3.01452 -94.43238 23.14594 26.56043 -4.418601e-07 2.155584e-08 -8.923963 -1.353316 7.232024 16.74513
33.69978 105.7255 245.5255 1.937384 -7.56899 4.199866 0.710327 8.36993 7.572401 2.927275e-06 43.09876 -2.699168e-06 4.694716 -7.734409 -4.739073 -3.61616 -12.56817 -9.159875 5.402457e-06 21.42806 8.720364e-06 -5.506106 -10.70556 19.51367 -1.759895 -0.06439139 7.665453 -1.284974 10.17505 -3.184656 2.835448 22.11422 5.189681 1.494021 -16.94205 8.627622 2.831761 -20.26318 10.4477 81.96407 24.28926 -8.026171 -4.753546e-07 1.141101e-06 23.00806 -23.64302 13.324 12.28306 3.889191 -14.59328 -3.246722 -93.33396 23.79717 24.96264 -4.455064e-07 3.483324e-08 -8.8656 -1.248555 7.384448 16.59974
35.14045 106.4948 251.2275 2.256564 -8.177272 4.719803 0.2832661 4.899405 7.841038 1.918927e-06 49.26355 -1.585561e-06 4.668484 -6.094068 -5.951657 -4.645556 -7.813651 -10.2313 3.771239e-06 21.44379 5.886104e-06 -4.767977 -11.78856 19.66689 -2.194109 -0.1437945 6.906646 -1.22057 10.29689 -3.627056 2.893423 22.41067 5.280801 1.463312 -16.58969 8.844137 3.24392 -19.28094 10.35382 83.08803 24.65161 -9.554288 -5.384992e-07 1.192099e-06 21.29627 -23.01017 13.37129 11.61776 3.790416 -14.89454 -3.527128 -92.17352 24.48814 22.78932 -5.807637e-07 7.041814e-08 -9.393596 -1.102288 7.619214 16.37653
36.44723 107.3854 256.493 2.557955 -8.632477 5.354145 0.1086093 0.4737677 7.968137 5.81068e-07 52.71199 -1.194394e-07 4.368922 -5.632205 -7.142183 -5.445726 -2.585027 -11.27373 1.386537e-06 20.76474 2.425462e-06 -3.752319 -13.152 19.89039 -2.616319 -0.2056503 6.065815 -1.010672 10.30098 -4.215558 2.933196 22.67299 5.288936 1.371966 -16.20085 9.004427 3.53319 -18.25221 10.21911 84.08018 25.03579 -11.34257 -5.394395e-07 1.192404e-06 19.40449 -21.84022 13.33637 10.6181 3.848929 -15.43862 -3.785384 -90.51788 25.1956 19.9975 -7.320628e-07 4.995995e-08 -10.58076 -0.7584983 8.15173 15.72416
37.63994 108.2017 261.5222 2.704984 -8.693194 6.021384 0.1908213 -4.21703 7.7347 -1.068206e-06 52.88302 1.489206e-06 4.027726 -5.56023 -8.018665 -5.85785 2.295077 -11.95475 2.41597e-08 19.0486 2.689242e-07 -3.074817 -14.69906 19.8133 -2.862982 -0.2383193 5.276645 -0.7368061 10.15796 -4.801218 2.971713 22.85666 5.294208 1.278912 -15.98644 9.164388 3.560568 -17.39489 10.03691 85.21047 25.19829 -13.10997 -5.432762e-07 1.147217e-06 17.75129 -20.84643 13.28226 9.77424 4.148745 -16.13208 -3.982205 -89.06372 25.58754 17.25604 -8.831396e-07 4.074777e-08 -12.29951 -0.2514231 8.710084 14.87627
38.70596 108.6917 266.3533 2.780545 -8.438907 6.660788 0.4071287 -8.916369 7.162239 -1.671441e-06 49.46813 2.026009e-06 3.540659 -6.19955 -8.487864 -5.995004 6.36085 -12.34163 -1.446194e-06 16.64227 -1.279872e-06 -2.488695 -16.39699 19.65881 -3.026196 -0.1936527 4.592757 -0.4152992 9.8606 -5.330137 2.980144 22.97106 5.293216 1.216346 -15.83878 9.247224 3.372023 -16.63042 9.829379 85.93384 25.28182 -14.66402 -4.523999e-07 1.001829e-06 16.18615 -19.89353 13.07577 8.967684 4.676422 -16.95438 -4.103773 -87.39432 25.76189 14.30487 -9.236887e-07 -4.387825e-08 -14.58686 0.4292946 9.334425 13.70283
39.66044 108.7562 271.2263 2.677246 -7.866151 7.20957 0.7656673 -13.48907 6.313345 -2.229367e-06 43.37288 2.350706e-06 3.006121 -6.94177 -8.696549 -5.864838 9.867975 -12.34267 -1.83018e-06 14.35336 -1.632614e-06 -2.462912 -18.00341 19.10654 -3.008954 -0.09122089 3.9726 -0.06177436 9.425169 -5.810297 2.988473 23.04234 5.297009 1.175977 -15.84174 9.309662 3.009692 -15.90196 9.589445 86.71817 25.28226 -16.13326 -3.710184e-07 7.930587e-07 14.66044 -19.20044 12.88845 8.367593 5.357136 -17.83977 -4.139554 -85.93992 25.68532 11.41559 -9.393651e-07 -1.018474e-07 -17.21676 1.210768 9.854652 12.46545
40.50596 108.3381 276.267 2.481807 -7.172147 7.64919 1.150908 -17.56955 5.346237 -2.589978e-06 35.74985 2.399087e-06 2.409924 -7.859049 -8.742467 -5.589217 12.65742 -12.08316 -1.763123e-06 12.6325 -1.468331e-06 -2.815854 -19.39288 18.37999 -2.89568 0.07121865 3.440354 0.2891547 8.918704 -6.217971 2.99822 23.1413 5.291136 1.155933 -15.913 9.339183 2.574878 -15.20005 9.356472 87.50669 25.30535 -17.44809 -2.802053e-07 5.282632e-07 13.16736 -18.71002 12.71332 7.927953 6.091153 -18.72092 -4.103729 -84.74361 25.49477 8.664894 -9.150202e-07 -1.553196e-07 -19.91079 2.013164 10.29095 11.24876
41.18635 107.4488 281.2957 2.360436 -6.64708 7.980098 1.43683 -21.15647 4.445985 -2.393416e-06 28.37888 2.023937e-06 1.551914 -9.057968 -8.759136 -5.385731 14.99609 -11.92335 -2.807597e-06 11.88595 -2.21471e-06 -2.926637 -20.55613 17.9458 -2.855188 0.2797913 2.942726 0.6202255 8.431708 -6.560259 2.994541 23.31849 5.252557 1.16214 -15.89735 9.293677 2.212575 -14.41863 9.161278 87.94687 25.50235 -18.60374 -1.158438e-07 2.031762e-07 11.47515 -17.99465 12.36347 7.330754 6.74465 -19.54687 -4.053197 -83.35694 25.37001 5.802242 -8.100693e-07 -2.832868e-07 -22.36578 2.855349 10.84211 9.90282
41.72105 106.299 286.435 2.136549 -6.215163 8.184441 1.771895 -23.81853 3.768784 -2.972442e-06 22.48033 2.320517e-06 0.5841556 -9.898031 -8.895223 -5.132099 17.06368 -11.74941 -2.916909e-06 12.54434 -2.743995e-06 -3.411985 -21.072 17.34048 -2.712322 0.4562164 2.449652 0.919443 7.971545 -6.842554 3.018551 23.51438 5.161032 1.14126 -15.93654 9.249146 1.944677 -13.6365 8.971099 88.53623 25.76024 -19.5987 -5.86776e-08 -7.983033e-08 9.838198 -17.27373 12.0997 6.834936 7.179607 -20.13227 -3.955162 -82.42515 25.30315 3.567959 -7.92017e-07 -2.925547e-07 -24.01702 3.566428 11.30066 8.870093
42.13415 105.1236 291.721 1.860848 -5.970039 8.292979 2.161577 -25.30787 3.468356 -4.156477e-06 19.08868 3.196925e-06 -0.4566052 -10.35473 -9.170087 -4.874594 18.76154 -11.68068 -2.343031e-06 14.4754 -3.34297e-06 -4.024319 -20.85394 16.72536 -2.506561 0.5499113 1.996036 1.164368 7.619328 -7.057884 3.058568 23.67181 5.005852 1.081031 -15.99665 9.190984 1.823669 -12.95029 8.807983 89.07917 26.05984 -20.32687 -1.114028e-07 -2.675925e-07 8.434874 -16.45812 11.91964 6.395192 7.300807 -20.40276 -3.844183 -81.87607 25.3357 2.208522 -8.744361e-07 -1.807919e-07 -24.58445 4.077509 11.68604 8.212114
42.51492 104.2679 297.3853 1.476839 -5.922183 8.357583 2.648454 -25.47769 3.592881 -6.474874e-06 19.33923 5.064749e-06 -1.353306 -9.764635 -9.615719 -4.617573 20.2651 -11.66292 1.233761e-07 17.97433 -3.221793e-06 -5.115424 -19.78591 15.88309 -2.157697 0.5306831 1.578301 1.314992 7.420249 -7.187697 3.151844 23.81105 4.818762 0.9806092 -16.16791 9.204102 1.856416 -12.40809 8.668143 90.04421 26.23451 -20.85027 -3.558774e-07 -2.893042e-07 7.412461 -15.83138 11.97789 6.187793 7.060728 -20.28655 -3.742494 -82.21475 25.50037 2.134817 -1.122517e-06 1.370433e-07 -23.83122 4.276706 11.86653 8.211388
42.86927 103.9132 303.2924 1.164357 -6.190894 8.380218 3.222343 -24.29516 4.06974 -8.567917e-06 21.58468 6.904915e-06 -2.315534 -9.122092 -10.00746 -4.401848 20.82433 -11.75008 2.286104e-06 23.21421 -3.54736e-06 -5.966326 -18.03596 15.3775 -1.785586 0.4714524 1.340949 1.380462 7.422429 -7.181955 3.249438 23.92485 4.572536 0.8813096 -16.28976 9.154924 1.987494 -12.05304 8.620818 90.62796 26.34426 -21.00946 -5.888943e-07 -2.337631e-07 6.712513 -15.05557 11.97408 5.871933 6.543408 -19.93091 -3.688864 -82.77022 25.72655 2.887503 -1.370086e-06 4.251689e-07 -22.17661 4.326008 12.0749 8.388601
43.21518 104.1475 309.3962 0.9034979 -6.680609 8.299095 3.897613 -21.60272 4.69899 -9.977171e-06 24.07301 8.20224e-06 -3.25972 -8.808488 -10.17626 -4.144174 19.82138 -11.75165 4.344618e-06 30.26267 -3.73218e-06 -6.856214 -15.74798 15.20958 -1.339655 0.4734044 1.395953 1.349331 7.547313 -6.962556 3.378843 24.13791 4.296089 0.8169881 -16.42588 9.080459 2.106962 -11.9504 8.685996 91.06118 26.34299 -20.74987 -7.552801e-07 -1.690745e-07 6.468982 -14.40648 11.90414 5.581035 5.916035 -19.40725 -3.627686 -84.00251 26.04704 4.495585 -1.544826e-06 6.214618e-07 -19.97213 4.220906 12.29031 8.768204
43.48071 104.7831 315.2162 0.997246 -7.56916 8.070677 4.329116 -17.64236 5.247909 -8.73447e-06 25.80835 7.347857e-06 -4.23551 -9.722525 -9.959668 -4.031297 16.70097 -11.84822 3.418293e-06 37.51104 -4.626059e-06 -6.881947 -13.69162 16.10096 -1.119531 0.6426202 1.838101 1.177143 7.809408 -6.458733 3.500873 24.54252 4.020839 0.8473715 -16.3204 8.907137 2.159153 -12.14725 8.907349 90.6082 26.2925 -19.83205 -6.135895e-07 -2.211686e-07 6.678778 -13.79378 11.40299 5.111123 5.372827 -18.87608 -3.616803 -85.2031 26.45437 6.195532 -1.403546e-06 4.639452e-07 -17.76388 4.114593 12.75554 8.846795
43.66024 105.6576 320.6174 1.200148 -8.415865 7.650355 4.530837 -13.02949 5.515537 -6.037555e-06 26.20273 5.193792e-06 -5.095753 -11.13521 -9.373506 -3.942495 12.18465 -11.82191 1.219372e-06 43.50781 -4.986167e-06 -6.616779 -11.96081 17.36372 -1.021515 0.8861031 2.515119 0.9307981 8.086914 -5.804513 3.582877 24.98746 3.810834 0.9609332 -16.20787 8.683202 2.116935 -12.62444 9.196559 89.70804 26.25673 -18.45876 -3.186755e-07 -3.579061e-07 7.306335 -13.55214 10.75518 4.841518 4.990015 -18.39141 -3.591295 -86.5169 26.76461 8.063753 -1.05842e-06 1.58405e-07 -15.79001 4.028607 13.24202 8.794677
